<?xml version="1.0" encoding="utf-8"?>
<!-- Generator: Adobe Illustrator 25.0.1, SVG Export Plug-In . SVG Version: 6.00 Build 0)  -->
<svg version="1.0" id="katman_1" xmlns="http://www.w3.org/2000/svg" xmlns:xlink="http://www.w3.org/1999/xlink" x="0px" y="0px"
	 viewBox="0 0 407 258" style="enable-background:new 0 0 407 258;" xml:space="preserve">
<style type="text/css">
	.st0{fill-rule:evenodd;clip-rule:evenodd;fill:#283691;}
	.st1{filter:url(#Adobe_OpacityMaskFilter);}
	.st2{fill-rule:evenodd;clip-rule:evenodd;fill:#FFFFFF;}
	.st3{mask:url(#mask-2_1_);fill-rule:evenodd;clip-rule:evenodd;fill:#283691;}
	.st4{filter:url(#Adobe_OpacityMaskFilter_1_);}
	.st5{mask:url(#mask-2_2_);fill-rule:evenodd;clip-rule:evenodd;fill:#283691;}
	.st6{filter:url(#Adobe_OpacityMaskFilter_2_);}
	.st7{mask:url(#mask-2_3_);fill-rule:evenodd;clip-rule:evenodd;fill:#283691;}
	.st8{filter:url(#Adobe_OpacityMaskFilter_3_);}
	.st9{mask:url(#mask-2_4_);fill-rule:evenodd;clip-rule:evenodd;fill:#283691;}
	.st10{filter:url(#Adobe_OpacityMaskFilter_4_);}
	.st11{mask:url(#mask-2_5_);fill-rule:evenodd;clip-rule:evenodd;fill:#283691;}
	.st12{filter:url(#Adobe_OpacityMaskFilter_5_);}
	.st13{mask:url(#mask-2_6_);fill-rule:evenodd;clip-rule:evenodd;fill:#283691;}
	.st14{filter:url(#Adobe_OpacityMaskFilter_6_);}
	.st15{mask:url(#mask-2_7_);fill-rule:evenodd;clip-rule:evenodd;fill:#283691;}
	.st16{filter:url(#Adobe_OpacityMaskFilter_7_);}
	.st17{mask:url(#mask-2_8_);fill-rule:evenodd;clip-rule:evenodd;fill:#283691;}
	.st18{filter:url(#Adobe_OpacityMaskFilter_8_);}
	.st19{mask:url(#mask-2_9_);fill-rule:evenodd;clip-rule:evenodd;fill:#283691;}
	.st20{filter:url(#Adobe_OpacityMaskFilter_9_);}
	.st21{mask:url(#mask-2_10_);fill-rule:evenodd;clip-rule:evenodd;fill:#283691;}
	.st22{filter:url(#Adobe_OpacityMaskFilter_10_);}
	.st23{mask:url(#mask-2_11_);fill-rule:evenodd;clip-rule:evenodd;fill:#283691;}
	.st24{filter:url(#Adobe_OpacityMaskFilter_11_);}
	.st25{mask:url(#mask-2_12_);fill-rule:evenodd;clip-rule:evenodd;fill:#283691;}
	.st26{filter:url(#Adobe_OpacityMaskFilter_12_);}
	.st27{mask:url(#mask-2_13_);fill-rule:evenodd;clip-rule:evenodd;fill:#FFFFFF;}
	.st28{filter:url(#Adobe_OpacityMaskFilter_13_);}
	.st29{mask:url(#mask-2_14_);fill-rule:evenodd;clip-rule:evenodd;fill:#FFFFFF;}
	.st30{filter:url(#Adobe_OpacityMaskFilter_14_);}
	.st31{mask:url(#mask-2_15_);fill-rule:evenodd;clip-rule:evenodd;fill:#FFFFFF;}
	.st32{filter:url(#Adobe_OpacityMaskFilter_15_);}
	.st33{mask:url(#mask-2_16_);fill-rule:evenodd;clip-rule:evenodd;fill:#FFFFFF;}
	.st34{filter:url(#Adobe_OpacityMaskFilter_16_);}
	.st35{mask:url(#mask-2_17_);fill-rule:evenodd;clip-rule:evenodd;fill:#FFFFFF;}
	.st36{filter:url(#Adobe_OpacityMaskFilter_17_);}
	.st37{mask:url(#mask-2_18_);fill-rule:evenodd;clip-rule:evenodd;fill:#FFFFFF;}
	.st38{filter:url(#Adobe_OpacityMaskFilter_18_);}
	.st39{mask:url(#mask-2_19_);fill-rule:evenodd;clip-rule:evenodd;fill:#FFFFFF;}
	.st40{filter:url(#Adobe_OpacityMaskFilter_19_);}
	.st41{mask:url(#mask-2_20_);fill-rule:evenodd;clip-rule:evenodd;fill:#FFFFFF;}
	.st42{filter:url(#Adobe_OpacityMaskFilter_20_);}
	.st43{mask:url(#mask-2_21_);fill-rule:evenodd;clip-rule:evenodd;fill:#FFFFFF;}
	.st44{filter:url(#Adobe_OpacityMaskFilter_21_);}
	.st45{mask:url(#mask-2_22_);fill-rule:evenodd;clip-rule:evenodd;fill:#283691;}
	.st46{filter:url(#Adobe_OpacityMaskFilter_22_);}
	.st47{mask:url(#mask-2_23_);fill-rule:evenodd;clip-rule:evenodd;fill:#283691;}
	.st48{filter:url(#Adobe_OpacityMaskFilter_23_);}
	.st49{mask:url(#mask-2_24_);fill-rule:evenodd;clip-rule:evenodd;fill:#283691;}
	.st50{filter:url(#Adobe_OpacityMaskFilter_24_);}
	.st51{mask:url(#mask-2_25_);fill-rule:evenodd;clip-rule:evenodd;fill:#283691;}
	.st52{filter:url(#Adobe_OpacityMaskFilter_25_);}
	.st53{mask:url(#mask-2_26_);fill-rule:evenodd;clip-rule:evenodd;fill:#283691;}
	.st54{filter:url(#Adobe_OpacityMaskFilter_26_);}
	.st55{mask:url(#mask-2_27_);fill-rule:evenodd;clip-rule:evenodd;fill:#283691;}
	.st56{filter:url(#Adobe_OpacityMaskFilter_27_);}
	.st57{mask:url(#mask-2_28_);fill-rule:evenodd;clip-rule:evenodd;fill:#283691;}
	.st58{filter:url(#Adobe_OpacityMaskFilter_28_);}
	.st59{mask:url(#mask-2_29_);fill-rule:evenodd;clip-rule:evenodd;fill:#283691;}
	.st60{filter:url(#Adobe_OpacityMaskFilter_29_);}
	.st61{mask:url(#mask-2_30_);fill-rule:evenodd;clip-rule:evenodd;fill:#283691;}
	.st62{filter:url(#Adobe_OpacityMaskFilter_30_);}
	.st63{mask:url(#mask-2_31_);fill-rule:evenodd;clip-rule:evenodd;fill:#283691;}
	.st64{filter:url(#Adobe_OpacityMaskFilter_31_);}
	.st65{mask:url(#mask-2_32_);fill-rule:evenodd;clip-rule:evenodd;fill:#283691;}
	.st66{filter:url(#Adobe_OpacityMaskFilter_32_);}
	.st67{mask:url(#mask-2_33_);fill-rule:evenodd;clip-rule:evenodd;fill:#283691;}
	.st68{filter:url(#Adobe_OpacityMaskFilter_33_);}
	.st69{mask:url(#mask-2_34_);fill-rule:evenodd;clip-rule:evenodd;fill:#283691;}
	.st70{filter:url(#Adobe_OpacityMaskFilter_34_);}
	.st71{mask:url(#mask-2_35_);fill-rule:evenodd;clip-rule:evenodd;fill:#283691;}
	.st72{filter:url(#Adobe_OpacityMaskFilter_35_);}
	.st73{mask:url(#mask-2_36_);fill-rule:evenodd;clip-rule:evenodd;fill:#283691;}
	.st74{filter:url(#Adobe_OpacityMaskFilter_36_);}
	.st75{mask:url(#mask-2_37_);fill-rule:evenodd;clip-rule:evenodd;fill:#283691;}
	.st76{filter:url(#Adobe_OpacityMaskFilter_37_);}
	.st77{mask:url(#mask-2_38_);fill-rule:evenodd;clip-rule:evenodd;fill:#283691;}
	.st78{filter:url(#Adobe_OpacityMaskFilter_38_);}
	.st79{mask:url(#mask-2_39_);fill-rule:evenodd;clip-rule:evenodd;fill:#283691;}
	.st80{filter:url(#Adobe_OpacityMaskFilter_39_);}
	.st81{mask:url(#mask-2_40_);fill-rule:evenodd;clip-rule:evenodd;fill:#283691;}
	.st82{filter:url(#Adobe_OpacityMaskFilter_40_);}
	.st83{mask:url(#mask-2_41_);fill-rule:evenodd;clip-rule:evenodd;fill:#283691;}
	.st84{filter:url(#Adobe_OpacityMaskFilter_41_);}
	.st85{mask:url(#mask-2_42_);fill-rule:evenodd;clip-rule:evenodd;fill:#283691;}
	.st86{filter:url(#Adobe_OpacityMaskFilter_42_);}
	.st87{mask:url(#mask-2_43_);fill-rule:evenodd;clip-rule:evenodd;fill:#283691;}
	.st88{filter:url(#Adobe_OpacityMaskFilter_43_);}
	.st89{mask:url(#mask-2_44_);fill-rule:evenodd;clip-rule:evenodd;fill:#283691;}
	.st90{filter:url(#Adobe_OpacityMaskFilter_44_);}
	.st91{mask:url(#mask-2_45_);fill-rule:evenodd;clip-rule:evenodd;fill:#283691;}
</style>
<desc>Created with Sketch.</desc>
<g id="Home">
	<g id="Home---Desktop" transform="translate(-786.000000, -59.000000)">
		<g id="Group-17" transform="translate(375.000000, 24.000000)">
			<g id="branding-_x2F_-logo-_x2F_-isik-logo-with-logotype" transform="translate(411.000000, 35.000000)">
				<g id="Group-60">
					<polygon id="Fill-1" class="st0" points="123.7,104 122.9,104 124.1,106.2 124.7,107.4 124.8,107.4 125.4,106.2 126.7,104 
						125.9,104 125.9,103.6 127.8,103.6 127.8,104 127.2,104 125,107.9 125,111.1 126,111.1 126,111.5 123.5,111.5 123.5,111.1 
						124.5,111.1 124.5,107.9 122.3,104 121.7,104 121.7,103.6 123.7,103.6 					"/>
					<polygon id="Fill-2" class="st0" points="134.3,111.5 134.3,111.1 138.7,104 135,104 135,105.1 134.6,105.1 134.6,103.6 
						139.3,103.6 139.3,104 134.9,111.1 139,111.1 139,109.8 139.5,109.8 139.5,111.5 					"/>
					<polygon id="Fill-3" class="st0" points="157.7,104 156.9,104 158.1,106.2 158.7,107.4 158.8,107.4 159.4,106.2 160.7,104 
						159.9,104 159.9,103.6 161.8,103.6 161.8,104 161.2,104 159,107.9 159,111.1 160,111.1 160,111.5 157.5,111.5 157.5,111.1 
						158.5,111.1 158.5,107.9 156.3,104 155.7,104 155.7,103.6 157.7,103.6 					"/>
					<polygon id="Fill-4" class="st0" points="194.3,110.2 194.9,108.8 197.3,103.6 198.6,103.6 198.6,104 197.9,104 197.9,111.1 
						198.6,111.1 198.6,111.5 196.6,111.5 196.6,111.1 197.3,111.1 197.3,104.6 197.3,104.6 196.8,105.8 194.5,110.8 194,110.8 
						191.7,105.7 191.2,104.6 191.2,104.6 191.2,111.1 192,111.1 192,111.5 190,111.5 190,111.1 190.7,111.1 190.7,104 190,104 
						190,103.6 191.3,103.6 193.6,108.8 194.2,110.2 					"/>
					<polygon id="Fill-5" class="st0" points="220.6,106.7 223.6,111.1 224.3,111.1 224.3,111.5 222.2,111.5 222.2,111.1 223,111.1 
						220.3,107.1 219.2,108.1 219.2,111.1 220,111.1 220,111.5 218,111.5 218,111.1 218.7,111.1 218.7,104 218,104 218,103.6 
						220,103.6 220,104 219.2,104 219.2,107.5 222.8,104 221.9,104 221.9,103.6 224,103.6 224,104 223.4,104 					"/>
					<polygon id="Fill-6" class="st0" points="236.3,105.2 235.9,105.2 235.9,104 233.8,104 233.8,111.1 234.8,111.1 234.8,111.5 
						232.3,111.5 232.3,111.1 233.3,111.1 233.3,104 231.2,104 231.2,105.2 230.8,105.2 230.8,103.6 236.3,103.6 					"/>
					<polygon id="Fill-7" class="st0" points="270,104 269.1,104 269.1,111.1 272.8,111.1 272.8,109.7 273.3,109.7 273.3,111.5 
						267.8,111.5 267.8,111.1 268.6,111.1 268.6,104 267.9,104 267.9,103.6 270,103.6 					"/>
					<polygon id="Fill-8" class="st0" points="327.1,110.9 327.5,109.4 329.2,104 328.5,104 328.5,103.6 330.4,103.6 330.4,104 
						329.7,104 327.4,111.5 326.7,111.5 324.4,104 323.7,104 323.7,103.6 325.7,103.6 325.7,104 324.9,104 326.6,109.4 327,110.9 
											"/>
					<polygon id="Fill-9" class="st0" points="352.4,106.7 355.4,111.1 356.1,111.1 356.1,111.5 354,111.5 354,111.1 354.8,111.1 
						352.1,107.1 351,108.1 351,111.1 351.8,111.1 351.8,111.5 349.8,111.5 349.8,111.1 350.5,111.1 350.5,104 349.8,104 
						349.8,103.6 351.8,103.6 351.8,104 351,104 351,107.5 354.6,104 353.7,104 353.7,103.6 355.8,103.6 355.8,104 355.2,104 					
						"/>
					<polygon id="Fill-10" class="st0" points="375.2,103.6 375.2,104 375.9,104 375.9,111.1 375.2,111.1 375.2,111.5 377.2,111.5 
						377.2,111.1 376.4,111.1 376.4,104 377.2,104 377.2,103.6 					"/>
					<g id="Group-59" transform="translate(0.000000, 0.305184)">
						<path id="Fill-11" class="st0" d="M113,150.7v3.3h1.2c0.4,0,0.7,0.1,1,0.3c0.3,0.2,0.4,0.5,0.4,0.9c0,0.4-0.1,0.7-0.4,0.9
							c-0.2,0.2-0.5,0.3-0.8,0.3c-0.4,0-0.7-0.1-0.9-0.3c-0.2-0.2-0.4-0.4-0.5-0.7l-2.2,1.3c0.3,0.6,0.8,1.1,1.5,1.5
							c0.7,0.4,1.5,0.6,2.5,0.6c0.9,0,1.8-0.3,2.5-0.9c0.7-0.6,1.1-1.4,1.2-2.4c0-1-0.3-1.8-0.9-2.4c-0.6-0.6-1.3-0.9-2.1-1.1v-1
							C115.4,147.4,113,148.9,113,150.7"/>
						<g id="Clip-14">
						</g>
						<defs>
							<filter id="Adobe_OpacityMaskFilter" filterUnits="userSpaceOnUse" x="98.1" y="127.5" width="4.8" height="23.1">
								<feColorMatrix  type="matrix" values="1 0 0 0 0  0 1 0 0 0  0 0 1 0 0  0 0 0 1 0"/>
							</filter>
						</defs>
						<mask maskUnits="userSpaceOnUse" x="98.1" y="127.5" width="4.8" height="23.1" id="mask-2_1_">
							<g class="st1">
								<polygon id="path-1_1_" class="st2" points="29,158.7 377.4,158.7 377.4,98.2 29,98.2 								"/>
							</g>
						</mask>
						<polygon id="Fill-13" class="st3" points="98.1,150.6 102.9,150.6 102.9,127.5 98.1,127.5 						"/>
						<defs>
							<filter id="Adobe_OpacityMaskFilter_1_" filterUnits="userSpaceOnUse" x="126.1" y="127.5" width="4.8" height="23.1">
								<feColorMatrix  type="matrix" values="1 0 0 0 0  0 1 0 0 0  0 0 1 0 0  0 0 0 1 0"/>
							</filter>
						</defs>
						<mask maskUnits="userSpaceOnUse" x="126.1" y="127.5" width="4.8" height="23.1" id="mask-2_2_">
							<g class="st4">
								<polygon id="path-1_2_" class="st2" points="29,158.7 377.4,158.7 377.4,98.2 29,98.2 								"/>
							</g>
						</mask>
						<polygon id="Fill-15" class="st5" points="126.1,150.6 130.9,150.6 130.9,127.5 126.1,127.5 						"/>
						<defs>
							<filter id="Adobe_OpacityMaskFilter_2_" filterUnits="userSpaceOnUse" x="212.6" y="127.5" width="4.8" height="23.1">
								<feColorMatrix  type="matrix" values="1 0 0 0 0  0 1 0 0 0  0 0 1 0 0  0 0 0 1 0"/>
							</filter>
						</defs>
						<mask maskUnits="userSpaceOnUse" x="212.6" y="127.5" width="4.8" height="23.1" id="mask-2_3_">
							<g class="st6">
								<polygon id="path-1_3_" class="st2" points="29,158.7 377.4,158.7 377.4,98.2 29,98.2 								"/>
							</g>
						</mask>
						<polygon id="Fill-16" class="st7" points="212.6,150.6 217.4,150.6 217.4,127.5 212.6,127.5 						"/>
						<defs>
							<filter id="Adobe_OpacityMaskFilter_3_" filterUnits="userSpaceOnUse" x="244.8" y="127.5" width="15.8" height="23.1">
								<feColorMatrix  type="matrix" values="1 0 0 0 0  0 1 0 0 0  0 0 1 0 0  0 0 0 1 0"/>
							</filter>
						</defs>
						<mask maskUnits="userSpaceOnUse" x="244.8" y="127.5" width="15.8" height="23.1" id="mask-2_4_">
							<g class="st8">
								<polygon id="path-1_4_" class="st2" points="29,158.7 377.4,158.7 377.4,98.2 29,98.2 								"/>
							</g>
						</mask>
						<polygon id="Fill-17" class="st9" points="244.8,150.6 260.6,150.6 260.6,146.4 249.6,146.4 249.6,143.1 258.9,143.1 
							258.9,139 249.6,139 249.6,131.6 260.1,131.6 260.1,127.5 244.8,127.5 						"/>
						<defs>
							<filter id="Adobe_OpacityMaskFilter_4_" filterUnits="userSpaceOnUse" x="304.2" y="127.5" width="4.8" height="23.1">
								<feColorMatrix  type="matrix" values="1 0 0 0 0  0 1 0 0 0  0 0 1 0 0  0 0 0 1 0"/>
							</filter>
						</defs>
						<mask maskUnits="userSpaceOnUse" x="304.2" y="127.5" width="4.8" height="23.1" id="mask-2_5_">
							<g class="st10">
								<polygon id="path-1_5_" class="st2" points="29,158.7 377.4,158.7 377.4,98.2 29,98.2 								"/>
							</g>
						</mask>
						<polygon id="Fill-18" class="st11" points="304.2,150.6 308.9,150.6 308.9,127.5 304.2,127.5 						"/>
						<defs>
							<filter id="Adobe_OpacityMaskFilter_5_" filterUnits="userSpaceOnUse" x="312.5" y="127.5" width="17.9" height="23.1">
								<feColorMatrix  type="matrix" values="1 0 0 0 0  0 1 0 0 0  0 0 1 0 0  0 0 0 1 0"/>
							</filter>
						</defs>
						<mask maskUnits="userSpaceOnUse" x="312.5" y="127.5" width="17.9" height="23.1" id="mask-2_6_">
							<g class="st12">
								<polygon id="path-1_6_" class="st2" points="29,158.7 377.4,158.7 377.4,98.2 29,98.2 								"/>
							</g>
						</mask>
						<polygon id="Fill-19" class="st13" points="319.1,150.6 323.9,150.6 323.9,131.6 330.4,131.6 330.4,127.5 312.5,127.5 
							312.5,131.6 319.1,131.6 						"/>
						<defs>
							<filter id="Adobe_OpacityMaskFilter_6_" filterUnits="userSpaceOnUse" x="334" y="127.5" width="15.8" height="23.1">
								<feColorMatrix  type="matrix" values="1 0 0 0 0  0 1 0 0 0  0 0 1 0 0  0 0 0 1 0"/>
							</filter>
						</defs>
						<mask maskUnits="userSpaceOnUse" x="334" y="127.5" width="15.8" height="23.1" id="mask-2_7_">
							<g class="st14">
								<polygon id="path-1_7_" class="st2" points="29,158.7 377.4,158.7 377.4,98.2 29,98.2 								"/>
							</g>
						</mask>
						<polygon id="Fill-20" class="st15" points="334,150.6 349.8,150.6 349.8,146.4 338.7,146.4 338.7,143.1 348,143.1 348,139 
							338.7,139 338.7,131.6 349.3,131.6 349.3,127.5 334,127.5 						"/>
						<defs>
							<filter id="Adobe_OpacityMaskFilter_7_" filterUnits="userSpaceOnUse" x="372.6" y="127.5" width="4.8" height="23.1">
								<feColorMatrix  type="matrix" values="1 0 0 0 0  0 1 0 0 0  0 0 1 0 0  0 0 0 1 0"/>
							</filter>
						</defs>
						<mask maskUnits="userSpaceOnUse" x="372.6" y="127.5" width="4.8" height="23.1" id="mask-2_8_">
							<g class="st16">
								<polygon id="path-1_8_" class="st2" points="29,158.7 377.4,158.7 377.4,98.2 29,98.2 								"/>
							</g>
						</mask>
						<polygon id="Fill-21" class="st17" points="372.6,150.6 377.4,150.6 377.4,127.5 372.6,127.5 						"/>
						<defs>
							<filter id="Adobe_OpacityMaskFilter_8_" filterUnits="userSpaceOnUse" x="212.3" y="119.8" width="5.2" height="5.2">
								<feColorMatrix  type="matrix" values="1 0 0 0 0  0 1 0 0 0  0 0 1 0 0  0 0 0 1 0"/>
							</filter>
						</defs>
						<mask maskUnits="userSpaceOnUse" x="212.3" y="119.8" width="5.2" height="5.2" id="mask-2_9_">
							<g class="st18">
								<polygon id="path-1_9_" class="st2" points="29,158.7 377.4,158.7 377.4,98.2 29,98.2 								"/>
							</g>
						</mask>
						<path id="Fill-22" class="st19" d="M214.9,124.9c0.7,0,1.3-0.3,1.8-0.8c0.5-0.5,0.8-1.1,0.8-1.8c0-0.7-0.3-1.3-0.8-1.8
							c-0.5-0.5-1.1-0.7-1.8-0.8c-0.7,0-1.3,0.3-1.8,0.8c-0.5,0.5-0.8,1.1-0.8,1.8c0,0.7,0.3,1.3,0.8,1.8
							C213.6,124.7,214.2,124.9,214.9,124.9"/>
						<defs>
							<filter id="Adobe_OpacityMaskFilter_9_" filterUnits="userSpaceOnUse" x="303.9" y="119.8" width="5.2" height="5.2">
								<feColorMatrix  type="matrix" values="1 0 0 0 0  0 1 0 0 0  0 0 1 0 0  0 0 0 1 0"/>
							</filter>
						</defs>
						<mask maskUnits="userSpaceOnUse" x="303.9" y="119.8" width="5.2" height="5.2" id="mask-2_10_">
							<g class="st20">
								<polygon id="path-1_10_" class="st2" points="29,158.7 377.4,158.7 377.4,98.2 29,98.2 								"/>
							</g>
						</mask>
						<path id="Fill-23" class="st21" d="M306.5,124.9c0.7,0,1.3-0.3,1.8-0.8c0.5-0.5,0.7-1.1,0.8-1.8c0-0.7-0.3-1.3-0.8-1.8
							c-0.5-0.5-1.1-0.7-1.8-0.8c-0.7,0-1.3,0.3-1.8,0.8c-0.5,0.5-0.8,1.1-0.8,1.8c0,0.7,0.3,1.3,0.8,1.8
							C305.2,124.7,305.8,124.9,306.5,124.9"/>
						<defs>
							<filter id="Adobe_OpacityMaskFilter_10_" filterUnits="userSpaceOnUse" x="372.2" y="119.8" width="5.2" height="5.2">
								<feColorMatrix  type="matrix" values="1 0 0 0 0  0 1 0 0 0  0 0 1 0 0  0 0 0 1 0"/>
							</filter>
						</defs>
						<mask maskUnits="userSpaceOnUse" x="372.2" y="119.8" width="5.2" height="5.2" id="mask-2_11_">
							<g class="st22">
								<polygon id="path-1_11_" class="st2" points="29,158.7 377.4,158.7 377.4,98.2 29,98.2 								"/>
							</g>
						</mask>
						<path id="Fill-24" class="st23" d="M374.8,124.9c0.7,0,1.3-0.3,1.8-0.8c0.5-0.5,0.8-1.1,0.8-1.8c0-0.7-0.3-1.3-0.8-1.8
							c-0.5-0.5-1.1-0.7-1.8-0.8c-0.7,0-1.3,0.3-1.8,0.8c-0.5,0.5-0.8,1.1-0.8,1.8c0,0.7,0.3,1.3,0.8,1.8
							C373.5,124.7,374.1,124.9,374.8,124.9"/>
						<defs>
							<filter id="Adobe_OpacityMaskFilter_11_" filterUnits="userSpaceOnUse" x="30.1" y="99.3" width="57.1" height="57.1">
								<feColorMatrix  type="matrix" values="1 0 0 0 0  0 1 0 0 0  0 0 1 0 0  0 0 0 1 0"/>
							</filter>
						</defs>
						<mask maskUnits="userSpaceOnUse" x="30.1" y="99.3" width="57.1" height="57.1" id="mask-2_12_">
							<g class="st24">
								<polygon id="path-1_12_" class="st2" points="29,158.7 377.4,158.7 377.4,98.2 29,98.2 								"/>
							</g>
						</mask>
						<path id="Fill-25" class="st25" d="M87.2,127.9c0,15.8-12.8,28.6-28.6,28.6c-15.8,0-28.6-12.8-28.6-28.6
							c0-15.8,12.8-28.6,28.6-28.6C74.4,99.3,87.2,112.1,87.2,127.9"/>
						<defs>
							<filter id="Adobe_OpacityMaskFilter_12_" filterUnits="userSpaceOnUse" x="29" y="98.2" width="59.3" height="59.3">
								<feColorMatrix  type="matrix" values="1 0 0 0 0  0 1 0 0 0  0 0 1 0 0  0 0 0 1 0"/>
							</filter>
						</defs>
						<mask maskUnits="userSpaceOnUse" x="29" y="98.2" width="59.3" height="59.3" id="mask-2_13_">
							<g class="st26">
								<polygon id="path-1_13_" class="st2" points="29,158.7 377.4,158.7 377.4,98.2 29,98.2 								"/>
							</g>
						</mask>
						<path id="Fill-26" class="st27" d="M58.7,157.5c-16.4,0-29.7-13.3-29.7-29.7c0-16.4,13.3-29.7,29.7-29.7
							c16.3,0,29.7,13.3,29.7,29.7C88.3,144.2,75,157.5,58.7,157.5 M58.7,100.4c-15.2,0-27.5,12.3-27.5,27.5
							c0,15.2,12.3,27.5,27.5,27.5c15.2,0,27.5-12.3,27.5-27.5C86.2,112.7,73.8,100.4,58.7,100.4"/>
						<defs>
							<filter id="Adobe_OpacityMaskFilter_13_" filterUnits="userSpaceOnUse" x="67.8" y="110" width="6" height="13.2">
								<feColorMatrix  type="matrix" values="1 0 0 0 0  0 1 0 0 0  0 0 1 0 0  0 0 0 1 0"/>
							</filter>
						</defs>
						<mask maskUnits="userSpaceOnUse" x="67.8" y="110" width="6" height="13.2" id="mask-2_14_">
							<g class="st28">
								<polygon id="path-1_14_" class="st2" points="29,158.7 377.4,158.7 377.4,98.2 29,98.2 								"/>
							</g>
						</mask>
						<path id="Fill-27" class="st29" d="M68.3,123.2c-1.4-4.1-0.1-4.3,2.2-7.5c0.9-1.1,1.6-2.4,1-5.7c1.8,2.3,2.5,4.2,2.1,7.1
							C73.2,121.3,69,121.9,68.3,123.2"/>
						<defs>
							<filter id="Adobe_OpacityMaskFilter_14_" filterUnits="userSpaceOnUse" x="41.6" y="118.4" width="6.3" height="19">
								<feColorMatrix  type="matrix" values="1 0 0 0 0  0 1 0 0 0  0 0 1 0 0  0 0 0 1 0"/>
							</filter>
						</defs>
						<mask maskUnits="userSpaceOnUse" x="41.6" y="118.4" width="6.3" height="19" id="mask-2_15_">
							<g class="st30">
								<polygon id="path-1_15_" class="st2" points="29,158.7 377.4,158.7 377.4,98.2 29,98.2 								"/>
							</g>
						</mask>
						<path id="Fill-28" class="st31" d="M41.6,118.4c0,0,2.9,3.4,1.1,9.5c-1.5,5.2,5.2,9.5,5.2,9.5s-1.2-3.6-0.5-9.3
							C48.5,120.2,41.6,118.4,41.6,118.4"/>
						<defs>
							<filter id="Adobe_OpacityMaskFilter_15_" filterUnits="userSpaceOnUse" x="45.2" y="139.2" width="27" height="6.8">
								<feColorMatrix  type="matrix" values="1 0 0 0 0  0 1 0 0 0  0 0 1 0 0  0 0 0 1 0"/>
							</filter>
						</defs>
						<mask maskUnits="userSpaceOnUse" x="45.2" y="139.2" width="27" height="6.8" id="mask-2_16_">
							<g class="st32">
								<polygon id="path-1_16_" class="st2" points="29,158.7 377.4,158.7 377.4,98.2 29,98.2 								"/>
							</g>
						</mask>
						<path id="Fill-29" class="st33" d="M72.2,139.2c-2,4.1-8.6,6.8-13.5,6.8c-4.8,0-11.5-2.8-13.5-6.8L72.2,139.2z"/>
						<defs>
							<filter id="Adobe_OpacityMaskFilter_16_" filterUnits="userSpaceOnUse" x="54.1" y="103" width="7.8" height="32.6">
								<feColorMatrix  type="matrix" values="1 0 0 0 0  0 1 0 0 0  0 0 1 0 0  0 0 0 1 0"/>
							</filter>
						</defs>
						<mask maskUnits="userSpaceOnUse" x="54.1" y="103" width="7.8" height="32.6" id="mask-2_17_">
							<g class="st34">
								<polygon id="path-1_17_" class="st2" points="29,158.7 377.4,158.7 377.4,98.2 29,98.2 								"/>
							</g>
						</mask>
						<path id="Fill-30" class="st35" d="M61.9,103c0,0-11.1,6.1-6.8,19.1c1.5,4.7,3.9,10.3,0.5,13.6c0,0,7.9-2.2,6-10.2
							c-1.2-4.9-2.8-11.5-2.5-15.1C59.3,107.6,59.6,106.6,61.9,103"/>
						<defs>
							<filter id="Adobe_OpacityMaskFilter_17_" filterUnits="userSpaceOnUse" x="67.5" y="123.8" width="5.8" height="14.2">
								<feColorMatrix  type="matrix" values="1 0 0 0 0  0 1 0 0 0  0 0 1 0 0  0 0 0 1 0"/>
							</filter>
						</defs>
						<mask maskUnits="userSpaceOnUse" x="67.5" y="123.8" width="5.8" height="14.2" id="mask-2_18_">
							<g class="st36">
								<polygon id="path-1_18_" class="st2" points="29,158.7 377.4,158.7 377.4,98.2 29,98.2 								"/>
							</g>
						</mask>
						<path id="Fill-31" class="st37" d="M68.5,123.8c0,0,2.1,3.7-0.4,7.6c-2.5,4,3.7,6.6,3.7,6.6s-2.5-2.4,0.5-6.5
							C74,129.2,73.6,123.8,68.5,123.8"/>
						<defs>
							<filter id="Adobe_OpacityMaskFilter_18_" filterUnits="userSpaceOnUse" x="46.7" y="107.1" width="8.2" height="31.7">
								<feColorMatrix  type="matrix" values="1 0 0 0 0  0 1 0 0 0  0 0 1 0 0  0 0 0 1 0"/>
							</filter>
						</defs>
						<mask maskUnits="userSpaceOnUse" x="46.7" y="107.1" width="8.2" height="31.7" id="mask-2_19_">
							<g class="st38">
								<polygon id="path-1_19_" class="st2" points="29,158.7 377.4,158.7 377.4,98.2 29,98.2 								"/>
							</g>
						</mask>
						<path id="Fill-32" class="st39" d="M49.7,136.2c3-4.2,0.8-7.7-1.2-11.9c-5.7-11.9,4.2-17.2,4.2-17.2
							c-3.3,6.4-0.2,12.5,0.6,14.2c2.7,5.8,1.7,9.6,0.1,11.9c0.7,2.6,0.1,4.4-1.8,5.6v-0.1c0.7-1,0.8-2.3,0.4-4
							C50.8,135.8,49.7,136.2,49.7,136.2"/>
						<defs>
							<filter id="Adobe_OpacityMaskFilter_19_" filterUnits="userSpaceOnUse" x="58.3" y="107.6" width="10.1" height="30.4">
								<feColorMatrix  type="matrix" values="1 0 0 0 0  0 1 0 0 0  0 0 1 0 0  0 0 0 1 0"/>
							</filter>
						</defs>
						<mask maskUnits="userSpaceOnUse" x="58.3" y="107.6" width="10.1" height="30.4" id="mask-2_20_">
							<g class="st40">
								<polygon id="path-1_20_" class="st2" points="29,158.7 377.4,158.7 377.4,98.2 29,98.2 								"/>
							</g>
						</mask>
						<path id="Fill-33" class="st41" d="M62.4,122.1c2.6,11-1.6,13.9-4.1,15.8c0,0,11.5-3.7,9.3-14.1c-1.2-5.7-1.1-14,0.8-16.3
							C68.4,107.6,59.7,110.5,62.4,122.1"/>
						<defs>
							<filter id="Adobe_OpacityMaskFilter_20_" filterUnits="userSpaceOnUse" x="55.4" y="147.3" width="6.6" height="8.1">
								<feColorMatrix  type="matrix" values="1 0 0 0 0  0 1 0 0 0  0 0 1 0 0  0 0 0 1 0"/>
							</filter>
						</defs>
						<mask maskUnits="userSpaceOnUse" x="55.4" y="147.3" width="6.6" height="8.1" id="mask-2_21_">
							<g class="st42">
								<polygon id="path-1_21_" class="st2" points="29,158.7 377.4,158.7 377.4,98.2 29,98.2 								"/>
							</g>
						</mask>
						<path id="Fill-34" class="st43" d="M56.2,155.3c0.8,0.1,1.7,0.1,2.5,0.1c0.8,0,1.7-0.1,2.5-0.1l0.8-8h-6.6L56.2,155.3z"/>
						<defs>
							<filter id="Adobe_OpacityMaskFilter_21_" filterUnits="userSpaceOnUse" x="53.2" y="140.7" width="2.1" height="3.2">
								<feColorMatrix  type="matrix" values="1 0 0 0 0  0 1 0 0 0  0 0 1 0 0  0 0 0 1 0"/>
							</filter>
						</defs>
						<mask maskUnits="userSpaceOnUse" x="53.2" y="140.7" width="2.1" height="3.2" id="mask-2_22_">
							<g class="st44">
								<polygon id="path-1_22_" class="st2" points="29,158.7 377.4,158.7 377.4,98.2 29,98.2 								"/>
							</g>
						</mask>
						<path id="Fill-35" class="st45" d="M53.3,143.5H54v-2.2c0,0-0.1,0-0.1,0c-0.1,0-0.1,0-0.2,0c-0.1,0-0.2,0-0.2,0
							c-0.1,0-0.1,0-0.1,0l-0.1-0.4l0.9-0.3h0.6v2.8h0.7v0.4h-2V143.5z"/>
						<defs>
							<filter id="Adobe_OpacityMaskFilter_22_" filterUnits="userSpaceOnUse" x="55.9" y="140.7" width="2.4" height="3.3">
								<feColorMatrix  type="matrix" values="1 0 0 0 0  0 1 0 0 0  0 0 1 0 0  0 0 0 1 0"/>
							</filter>
						</defs>
						<mask maskUnits="userSpaceOnUse" x="55.9" y="140.7" width="2.4" height="3.3" id="mask-2_23_">
							<g class="st46">
								<polygon id="path-1_23_" class="st2" points="29,158.7 377.4,158.7 377.4,98.2 29,98.2 								"/>
							</g>
						</mask>
						<path id="Fill-36" class="st47" d="M56.7,141.5c0,0.1,0,0.1,0,0.2c0,0,0.1,0.1,0.1,0.1c0.1,0,0.1,0.1,0.2,0.1
							c0.1,0,0.2,0.1,0.2,0.1c0.1-0.1,0.2-0.2,0.3-0.2c0-0.1,0.1-0.2,0.1-0.2c0,0,0-0.1,0-0.1c0-0.1,0-0.1-0.1-0.1
							c0,0-0.1-0.1-0.1-0.1c-0.1,0-0.1,0-0.2,0c-0.1,0-0.2,0-0.2,0c0,0-0.1,0.1-0.1,0.1c0,0-0.1,0.1-0.1,0.1
							C56.7,141.5,56.7,141.5,56.7,141.5 M57.1,143.5c0.1,0,0.2,0,0.2,0c0.1,0,0.1-0.1,0.2-0.1c0,0,0.1-0.1,0.1-0.1
							c0-0.1,0-0.1,0-0.2c0-0.1,0-0.1-0.1-0.2c0,0-0.1-0.1-0.1-0.1c-0.1,0-0.1-0.1-0.2-0.1c-0.1,0-0.2-0.1-0.3-0.1
							c-0.1,0.1-0.2,0.2-0.3,0.3c0,0.1-0.1,0.2-0.1,0.3c0,0.1,0,0.2,0.1,0.3C56.8,143.4,56.9,143.5,57.1,143.5 M58.2,141.5
							c0,0.1,0,0.2-0.1,0.4c-0.1,0.1-0.2,0.3-0.3,0.4c0.2,0.1,0.3,0.2,0.4,0.3c0.1,0.1,0.2,0.3,0.2,0.5c0,0.1,0,0.3-0.1,0.4
							c-0.1,0.1-0.1,0.2-0.2,0.3c-0.1,0.1-0.2,0.2-0.4,0.2c-0.2,0.1-0.3,0.1-0.5,0.1c-0.4,0-0.7-0.1-0.9-0.3
							c-0.2-0.2-0.3-0.4-0.3-0.6c0-0.1,0-0.1,0-0.2c0-0.1,0-0.2,0.1-0.2c0-0.1,0.1-0.2,0.2-0.2c0.1-0.1,0.2-0.1,0.3-0.2
							c-0.1-0.1-0.2-0.2-0.3-0.3c-0.1-0.1-0.1-0.2-0.1-0.4c0-0.1,0-0.2,0.1-0.3c0.1-0.1,0.1-0.2,0.2-0.3c0.1-0.1,0.2-0.1,0.3-0.2
							c0.1,0,0.3-0.1,0.4-0.1c0.1,0,0.2,0,0.4,0c0.1,0,0.2,0.1,0.4,0.1c0.1,0.1,0.2,0.1,0.3,0.3C58.2,141.2,58.2,141.4,58.2,141.5"
							/>
						<defs>
							<filter id="Adobe_OpacityMaskFilter_23_" filterUnits="userSpaceOnUse" x="58.8" y="140.7" width="2.4" height="3.3">
								<feColorMatrix  type="matrix" values="1 0 0 0 0  0 1 0 0 0  0 0 1 0 0  0 0 0 1 0"/>
							</filter>
						</defs>
						<mask maskUnits="userSpaceOnUse" x="58.8" y="140.7" width="2.4" height="3.3" id="mask-2_24_">
							<g class="st48">
								<polygon id="path-1_24_" class="st2" points="29,158.7 377.4,158.7 377.4,98.2 29,98.2 								"/>
							</g>
						</mask>
						<path id="Fill-37" class="st49" d="M59.5,141.5c0,0.1,0,0.1,0.1,0.2c0,0,0.1,0.1,0.1,0.1c0.1,0,0.1,0.1,0.2,0.1
							c0.1,0,0.2,0.1,0.2,0.1c0.1-0.1,0.2-0.2,0.3-0.2c0.1-0.1,0.1-0.2,0.1-0.2c0,0,0-0.1,0-0.1c0-0.1-0.1-0.1-0.1-0.1
							c0,0-0.1-0.1-0.2-0.1c-0.1,0-0.1,0-0.2,0c-0.1,0-0.2,0-0.2,0c-0.1,0-0.1,0.1-0.1,0.1c0,0-0.1,0.1-0.1,0.1
							C59.6,141.5,59.5,141.5,59.5,141.5 M60,143.5c0.1,0,0.2,0,0.2,0c0.1,0,0.1-0.1,0.2-0.1c0.1,0,0.1-0.1,0.1-0.1
							c0-0.1,0-0.1,0-0.2c0-0.1,0-0.1,0-0.2c0,0-0.1-0.1-0.1-0.1c-0.1,0-0.1-0.1-0.2-0.1c-0.1,0-0.2-0.1-0.3-0.1
							c-0.1,0.1-0.3,0.2-0.3,0.3c0,0.1-0.1,0.2-0.1,0.3c0,0.1,0,0.2,0.1,0.3C59.7,143.4,59.8,143.5,60,143.5 M61.1,141.5
							c0,0.1,0,0.2-0.1,0.4c-0.1,0.1-0.2,0.3-0.4,0.4c0.2,0.1,0.3,0.2,0.4,0.3c0.1,0.1,0.1,0.3,0.1,0.5c0,0.1,0,0.3-0.1,0.4
							c-0.1,0.1-0.1,0.2-0.3,0.3c-0.1,0.1-0.2,0.2-0.4,0.2c-0.2,0.1-0.3,0.1-0.5,0.1c-0.4,0-0.7-0.1-0.9-0.3
							c-0.2-0.2-0.3-0.4-0.3-0.6c0-0.1,0-0.1,0-0.2c0-0.1,0-0.2,0.1-0.2c0-0.1,0.1-0.2,0.2-0.2c0.1-0.1,0.2-0.1,0.3-0.2
							c-0.1-0.1-0.2-0.2-0.3-0.3c-0.1-0.1-0.1-0.2-0.1-0.4c0-0.1,0-0.2,0.1-0.3c0-0.1,0.1-0.2,0.2-0.3c0.1-0.1,0.2-0.1,0.4-0.2
							c0.1,0,0.3-0.1,0.4-0.1c0.1,0,0.2,0,0.4,0c0.1,0,0.2,0.1,0.4,0.1c0.1,0.1,0.2,0.1,0.3,0.3C61.1,141.2,61.1,141.4,61.1,141.5"
							/>
						<defs>
							<filter id="Adobe_OpacityMaskFilter_24_" filterUnits="userSpaceOnUse" x="61.7" y="140.7" width="2.4" height="3.3">
								<feColorMatrix  type="matrix" values="1 0 0 0 0  0 1 0 0 0  0 0 1 0 0  0 0 0 1 0"/>
							</filter>
						</defs>
						<mask maskUnits="userSpaceOnUse" x="61.7" y="140.7" width="2.4" height="3.3" id="mask-2_25_">
							<g class="st50">
								<polygon id="path-1_25_" class="st2" points="29,158.7 377.4,158.7 377.4,98.2 29,98.2 								"/>
							</g>
						</mask>
						<path id="Fill-38" class="st51" d="M62.7,142.3c-0.2,0-0.3,0-0.5,0.1l-0.3-0.2l0.1-1.5h1.9v0.8h-0.5v-0.3h-0.9l-0.1,0.8
							c0.1,0,0.1,0,0.2,0c0.1,0,0.2,0,0.3,0c0.2,0,0.3,0,0.4,0.1c0.1,0,0.3,0.1,0.4,0.2c0.1,0.1,0.2,0.2,0.3,0.3
							c0.1,0.1,0.1,0.3,0.1,0.4c0,0.2,0,0.3-0.1,0.5c-0.1,0.1-0.2,0.3-0.3,0.3c-0.1,0.1-0.3,0.2-0.4,0.2c-0.2,0-0.3,0.1-0.5,0.1
							c-0.1,0-0.1,0-0.2,0c-0.1,0-0.2,0-0.3,0c-0.1,0-0.2,0-0.3-0.1c-0.1,0-0.2-0.1-0.3-0.1l0.2-0.4c0.2,0,0.3,0.1,0.5,0.1
							c0.1,0,0.2,0,0.3,0c0.2,0,0.4,0,0.5-0.1c0.1-0.1,0.2-0.2,0.2-0.4c0-0.1,0-0.2,0-0.2c0-0.1-0.1-0.1-0.1-0.2
							c-0.1,0-0.1-0.1-0.2-0.1C62.9,142.3,62.8,142.3,62.7,142.3"/>
						<defs>
							<filter id="Adobe_OpacityMaskFilter_25_" filterUnits="userSpaceOnUse" x="135.8" y="127.5" width="18.9" height="23.1">
								<feColorMatrix  type="matrix" values="1 0 0 0 0  0 1 0 0 0  0 0 1 0 0  0 0 0 1 0"/>
							</filter>
						</defs>
						<mask maskUnits="userSpaceOnUse" x="135.8" y="127.5" width="18.9" height="23.1" id="mask-2_26_">
							<g class="st52">
								<polygon id="path-1_26_" class="st2" points="29,158.7 377.4,158.7 377.4,98.2 29,98.2 								"/>
							</g>
						</mask>
						<path id="Fill-39" class="st53" d="M140.2,139.3c0.1-0.6,0.1-1.2,0.2-1.9c0.1-0.7,0.1-1.3,0.1-1.9v-8h-4.8v23.1h4.8v-6.4
							l2.2-2.7l6.1,9.1h5.7l-8.7-12.7l7.7-10.5h-5.4l-6.1,8.3c-0.4,0.5-0.7,1-1,1.7C140.8,138.1,140.5,138.7,140.2,139.3"/>
						<defs>
							<filter id="Adobe_OpacityMaskFilter_26_" filterUnits="userSpaceOnUse" x="165.3" y="119.8" width="18.7" height="31.1">
								<feColorMatrix  type="matrix" values="1 0 0 0 0  0 1 0 0 0  0 0 1 0 0  0 0 0 1 0"/>
							</filter>
						</defs>
						<mask maskUnits="userSpaceOnUse" x="165.3" y="119.8" width="18.7" height="31.1" id="mask-2_27_">
							<g class="st54">
								<polygon id="path-1_27_" class="st2" points="29,158.7 377.4,158.7 377.4,98.2 29,98.2 								"/>
							</g>
						</mask>
						<path id="Fill-40" class="st55" d="M178.3,124.9c0.7,0,1.3-0.3,1.8-0.8c0.5-0.5,0.7-1.1,0.8-1.8c0-0.7-0.3-1.3-0.8-1.8
							c-0.5-0.5-1.1-0.7-1.8-0.8c-0.7,0-1.3,0.3-1.8,0.8c-0.5,0.5-0.8,1.1-0.8,1.8c0,0.7,0.3,1.3,0.8,1.8
							C177,124.7,177.6,124.9,178.3,124.9 M170.9,124.9c0.7,0,1.3-0.3,1.8-0.8c0.5-0.5,0.8-1.1,0.8-1.8c0-0.7-0.3-1.3-0.8-1.8
							c-0.5-0.5-1.1-0.7-1.8-0.8c-0.7,0-1.3,0.3-1.8,0.8c-0.5,0.5-0.8,1.1-0.8,1.8c0,0.7,0.3,1.3,0.8,1.8
							C169.6,124.7,170.2,124.9,170.9,124.9 M174.6,150.9c1.8,0,3.4-0.3,4.7-1c1.4-0.6,2.5-1.6,3.3-2.9c0.8-1.3,1.2-2.9,1.2-4.8
							v-14.8h-4.8v14.5c0,1.7-0.4,2.9-1.1,3.6c-0.8,0.7-1.9,1.1-3.4,1.1c-1.6,0-2.8-0.3-3.5-1.1c-0.7-0.7-1.1-1.9-1.1-3.6v-14.5
							h-4.8v14.8c0,2,0.4,3.5,1.2,4.8c0.8,1.3,1.9,2.2,3.3,2.9C171.2,150.5,172.8,150.9,174.6,150.9"/>
						<defs>
							<filter id="Adobe_OpacityMaskFilter_27_" filterUnits="userSpaceOnUse" x="188.7" y="127.3" width="19" height="23.5">
								<feColorMatrix  type="matrix" values="1 0 0 0 0  0 1 0 0 0  0 0 1 0 0  0 0 0 1 0"/>
							</filter>
						</defs>
						<mask maskUnits="userSpaceOnUse" x="188.7" y="127.3" width="19" height="23.5" id="mask-2_28_">
							<g class="st56">
								<polygon id="path-1_28_" class="st2" points="29,158.7 377.4,158.7 377.4,98.2 29,98.2 								"/>
							</g>
						</mask>
						<path id="Fill-41" class="st57" d="M207.2,150.8h0.5v-23.3h-4.5v9.7c0,0.6,0,1.2,0.1,1.8c0.1,0.6,0.1,1.2,0.1,1.7
							c0,0.5,0.1,0.7,0.1,0.7c0,0-0.2-0.2-0.5-0.6c-0.3-0.4-0.7-0.8-1-1.3c-0.4-0.5-0.8-0.9-1.2-1.3l-11.7-10.9h-0.5v23.3h4.5v-9.7
							c0-0.6,0-1.2-0.1-1.8c0-0.6-0.1-1.2-0.2-1.6c-0.1-0.4-0.1-0.7-0.1-0.7c0,0,0.2,0.2,0.5,0.6c0.3,0.4,0.7,0.8,1.1,1.3
							c0.4,0.5,0.8,0.9,1.2,1.3L207.2,150.8z"/>
						<defs>
							<filter id="Adobe_OpacityMaskFilter_28_" filterUnits="userSpaceOnUse" x="220.6" y="127.5" width="21.1" height="23.3">
								<feColorMatrix  type="matrix" values="1 0 0 0 0  0 1 0 0 0  0 0 1 0 0  0 0 0 1 0"/>
							</filter>
						</defs>
						<mask maskUnits="userSpaceOnUse" x="220.6" y="127.5" width="21.1" height="23.3" id="mask-2_29_">
							<g class="st58">
								<polygon id="path-1_29_" class="st2" points="29,158.7 377.4,158.7 377.4,98.2 29,98.2 								"/>
							</g>
						</mask>
						<path id="Fill-42" class="st59" d="M231.1,150.8h0.5l10.1-23.3h-4.6l-3.9,8.9c-0.3,0.7-0.6,1.5-0.9,2.2
							c-0.3,0.8-0.5,1.5-0.6,2.1c-0.2,0.6-0.3,0.9-0.3,0.9c0,0-0.1-0.3-0.3-0.9c-0.2-0.6-0.4-1.3-0.7-2.1c-0.3-0.8-0.6-1.6-0.9-2.2
							l-4-8.9h-5.1L231.1,150.8z"/>
						<defs>
							<filter id="Adobe_OpacityMaskFilter_29_" filterUnits="userSpaceOnUse" x="265" y="127.5" width="17.1" height="23.1">
								<feColorMatrix  type="matrix" values="1 0 0 0 0  0 1 0 0 0  0 0 1 0 0  0 0 0 1 0"/>
							</filter>
						</defs>
						<mask maskUnits="userSpaceOnUse" x="265" y="127.5" width="17.1" height="23.1" id="mask-2_30_">
							<g class="st60">
								<polygon id="path-1_30_" class="st2" points="29,158.7 377.4,158.7 377.4,98.2 29,98.2 								"/>
							</g>
						</mask>
						<path id="Fill-43" class="st61" d="M277.2,143.4c1.4-0.6,2.5-1.6,3.3-2.7c0.8-1.2,1.2-2.7,1.2-4.4c0-2.8-1-5-2.7-6.5
							c-1.8-1.5-4.3-2.2-7.6-2.2H265v23.1h4.8v-5.8h1.6c0.2,0,0.5,0,0.7,0c0.2,0,0.5,0,0.7-0.1l3.8,5.8h5.5L277.2,143.4z
							 M269.7,140.7v-9.1h1.5c1.9,0,3.3,0.3,4.2,1.1c0.9,0.7,1.4,1.9,1.3,3.5c0,1.6-0.4,2.8-1.3,3.5c-0.9,0.7-2.3,1-4.3,1H269.7z"/>
						<defs>
							<filter id="Adobe_OpacityMaskFilter_30_" filterUnits="userSpaceOnUse" x="283.8" y="127.2" width="16.5" height="23.7">
								<feColorMatrix  type="matrix" values="1 0 0 0 0  0 1 0 0 0  0 0 1 0 0  0 0 0 1 0"/>
							</filter>
						</defs>
						<mask maskUnits="userSpaceOnUse" x="283.8" y="127.2" width="16.5" height="23.7" id="mask-2_31_">
							<g class="st62">
								<polygon id="path-1_31_" class="st2" points="29,158.7 377.4,158.7 377.4,98.2 29,98.2 								"/>
							</g>
						</mask>
						<path id="Fill-44" class="st63" d="M292.5,150.9c2.3,0,4.2-0.6,5.6-1.7c1.5-1.1,2.2-2.8,2.2-4.9c0-2-0.5-3.5-1.6-4.6
							c-1.1-1.1-2.6-2.1-4.7-2.9l-1.2-0.5c-1-0.4-1.7-0.8-2.2-1.2c-0.5-0.4-0.7-1-0.7-1.7c0-0.6,0.2-1.1,0.6-1.4
							c0.4-0.4,1-0.6,1.7-0.6c0.7,0,1.3,0.2,1.7,0.5c0.5,0.3,0.9,0.8,1.3,1.6l3.7-2.4c-0.8-1.3-1.7-2.3-2.8-2.9
							c-1.1-0.6-2.4-0.9-4-0.9c-2.1,0-3.8,0.6-5.1,1.8c-1.2,1.2-1.9,2.7-1.9,4.5c0,1.9,0.6,3.4,1.6,4.5c1,1.1,2.4,2,4.1,2.7l1.2,0.5
							c1.1,0.4,1.9,0.9,2.5,1.3c0.6,0.4,0.9,1.1,0.9,1.8c0,0.7-0.3,1.2-0.9,1.7c-0.6,0.4-1.3,0.7-2.3,0.7c-1.2,0-2.1-0.3-2.8-0.8
							c-0.7-0.5-1.4-1.2-1.8-2.1l-3.9,2.2c0.7,1.4,1.7,2.6,3.2,3.5C288.5,150.4,290.3,150.8,292.5,150.9"/>
						<defs>
							<filter id="Adobe_OpacityMaskFilter_31_" filterUnits="userSpaceOnUse" x="352.3" y="127.2" width="16.6" height="23.7">
								<feColorMatrix  type="matrix" values="1 0 0 0 0  0 1 0 0 0  0 0 1 0 0  0 0 0 1 0"/>
							</filter>
						</defs>
						<mask maskUnits="userSpaceOnUse" x="352.3" y="127.2" width="16.6" height="23.7" id="mask-2_32_">
							<g class="st64">
								<polygon id="path-1_32_" class="st2" points="29,158.7 377.4,158.7 377.4,98.2 29,98.2 								"/>
							</g>
						</mask>
						<path id="Fill-45" class="st65" d="M360.9,150.9c2.3,0,4.2-0.6,5.6-1.7c1.4-1.1,2.2-2.8,2.3-4.9c0-2-0.6-3.5-1.6-4.6
							c-1.1-1.1-2.7-2.1-4.7-2.9l-1.2-0.5c-1-0.4-1.8-0.8-2.2-1.2c-0.5-0.4-0.7-1-0.7-1.7c0-0.6,0.2-1.1,0.6-1.4
							c0.4-0.4,0.9-0.6,1.7-0.6c0.7,0,1.2,0.2,1.7,0.5c0.5,0.3,0.9,0.8,1.3,1.6l3.7-2.4c-0.8-1.3-1.7-2.3-2.8-2.9
							c-1.1-0.6-2.4-0.9-3.9-0.9c-2.1,0-3.8,0.6-5.1,1.8c-1.2,1.2-1.9,2.7-1.9,4.5c0,1.9,0.5,3.4,1.6,4.5c1,1.1,2.4,2,4.1,2.7
							l1.2,0.5c1.1,0.4,1.9,0.9,2.5,1.3c0.6,0.4,0.9,1.1,0.9,1.8c0,0.7-0.3,1.2-0.9,1.7c-0.6,0.4-1.4,0.7-2.4,0.7
							c-1.2,0-2.1-0.3-2.8-0.8c-0.7-0.5-1.4-1.2-1.9-2.1l-3.9,2.2c0.7,1.4,1.8,2.6,3.2,3.5C356.9,150.4,358.7,150.8,360.9,150.9"/>
						<defs>
							<filter id="Adobe_OpacityMaskFilter_32_" filterUnits="userSpaceOnUse" x="105.8" y="127.2" width="16.5" height="23.7">
								<feColorMatrix  type="matrix" values="1 0 0 0 0  0 1 0 0 0  0 0 1 0 0  0 0 0 1 0"/>
							</filter>
						</defs>
						<mask maskUnits="userSpaceOnUse" x="105.8" y="127.2" width="16.5" height="23.7" id="mask-2_33_">
							<g class="st66">
								<polygon id="path-1_33_" class="st2" points="29,158.7 377.4,158.7 377.4,98.2 29,98.2 								"/>
							</g>
						</mask>
						<path id="Fill-46" class="st67" d="M114.5,150.9c2.3,0,4.2-0.6,5.6-1.7c1.5-1.1,2.2-2.8,2.2-4.9c0-2-0.6-3.5-1.6-4.6
							c-1.1-1.1-2.7-2.1-4.7-2.9l-1.2-0.5c-1-0.4-1.8-0.8-2.2-1.2c-0.5-0.4-0.7-1-0.7-1.7c0-0.6,0.2-1.1,0.6-1.4
							c0.4-0.4,1-0.6,1.7-0.6c0.7,0,1.3,0.2,1.7,0.5c0.5,0.3,0.9,0.8,1.3,1.6l3.7-2.4c-0.8-1.3-1.7-2.3-2.8-2.9
							c-1.1-0.6-2.4-0.9-3.9-0.9c-2.1,0-3.8,0.6-5.1,1.8c-1.2,1.2-1.9,2.7-1.9,4.5c0,1.9,0.5,3.4,1.6,4.5c1,1.1,2.4,2,4.1,2.7
							l1.2,0.5c1.1,0.4,1.9,0.9,2.5,1.3c0.6,0.4,0.9,1.1,0.9,1.8c0,0.7-0.3,1.2-0.9,1.7c-0.6,0.4-1.4,0.7-2.3,0.7
							c-1.2,0-2.1-0.3-2.9-0.8c-0.7-0.5-1.4-1.2-1.8-2.1l-3.9,2.2c0.7,1.4,1.8,2.6,3.2,3.5C110.4,150.4,112.3,150.8,114.5,150.9"/>
						<defs>
							<filter id="Adobe_OpacityMaskFilter_33_" filterUnits="userSpaceOnUse" x="362.8" y="103.3" width="5.2" height="8">
								<feColorMatrix  type="matrix" values="1 0 0 0 0  0 1 0 0 0  0 0 1 0 0  0 0 0 1 0"/>
							</filter>
						</defs>
						<mask maskUnits="userSpaceOnUse" x="362.8" y="103.3" width="5.2" height="8" id="mask-2_34_">
							<g class="st68">
								<polygon id="path-1_34_" class="st2" points="29,158.7 377.4,158.7 377.4,98.2 29,98.2 								"/>
							</g>
						</mask>
						<path id="Fill-47" class="st69" d="M365.3,111.2h-2.4v-0.4h0.8v-7.1h-0.7v-0.4h5.1v1.5h-0.4v-1h-3.4v3.1c0.1,0,0.2,0,0.4,0
							c0.2,0,0.4,0,0.6,0c0.2,0,0.5,0,0.7,0c0.2,0,0.5,0,0.7,0c0.2,0,0.4,0,0.6,0c0.2,0,0.3,0,0.4,0v0.5l-3.3,0v3.6h1.1V111.2z"/>
						<defs>
							<filter id="Adobe_OpacityMaskFilter_34_" filterUnits="userSpaceOnUse" x="97.8" y="103.3" width="5.2" height="8">
								<feColorMatrix  type="matrix" values="1 0 0 0 0  0 1 0 0 0  0 0 1 0 0  0 0 0 1 0"/>
							</filter>
						</defs>
						<mask maskUnits="userSpaceOnUse" x="97.8" y="103.3" width="5.2" height="8" id="mask-2_35_">
							<g class="st70">
								<polygon id="path-1_35_" class="st2" points="29,158.7 377.4,158.7 377.4,98.2 29,98.2 								"/>
							</g>
						</mask>
						<path id="Fill-48" class="st71" d="M100.2,111.2h-2.4v-0.4h0.8v-7.1h-0.7v-0.4h5.1v1.5h-0.4v-1h-3.4v3.1c0.1,0,0.2,0,0.4,0
							c0.2,0,0.4,0,0.6,0c0.2,0,0.5,0,0.7,0c0.2,0,0.5,0,0.7,0c0.2,0,0.4,0,0.6,0c0.2,0,0.3,0,0.4,0v0.5l-3.3,0v3.6h1.1V111.2z"/>
						<defs>
							<filter id="Adobe_OpacityMaskFilter_35_" filterUnits="userSpaceOnUse" x="109.8" y="103.3" width="5.4" height="8">
								<feColorMatrix  type="matrix" values="1 0 0 0 0  0 1 0 0 0  0 0 1 0 0  0 0 0 1 0"/>
							</filter>
						</defs>
						<mask maskUnits="userSpaceOnUse" x="109.8" y="103.3" width="5.4" height="8" id="mask-2_36_">
							<g class="st72">
								<polygon id="path-1_36_" class="st2" points="29,158.7 377.4,158.7 377.4,98.2 29,98.2 								"/>
							</g>
						</mask>
						<path id="Fill-49" class="st73" d="M109.8,110.8h0.8v-7.1h-0.7v-0.4h5.1v1.5h-0.4v-1h-3.4v3.1c0.1,0,0.2,0,0.4,0
							c0.2,0,0.4,0,0.6,0c0.2,0,0.5,0,0.7,0c0.2,0,0.5,0,0.7,0c0.2,0,0.4,0,0.6,0c0.2,0,0.3,0,0.4,0v0.5l-3.3,0v3.6h3.6v-1h0.5v1.5
							h-5.4V110.8z"/>
						<defs>
							<filter id="Adobe_OpacityMaskFilter_36_" filterUnits="userSpaceOnUse" x="146.7" y="101.4" width="2" height="9.8">
								<feColorMatrix  type="matrix" values="1 0 0 0 0  0 1 0 0 0  0 0 1 0 0  0 0 0 1 0"/>
							</filter>
						</defs>
						<mask maskUnits="userSpaceOnUse" x="146.7" y="101.4" width="2" height="9.8" id="mask-2_37_">
							<g class="st74">
								<polygon id="path-1_37_" class="st2" points="29,158.7 377.4,158.7 377.4,98.2 29,98.2 								"/>
							</g>
						</mask>
						<path id="Fill-50" class="st75" d="M146.7,111.2v-0.4h0.7v-7.1h-0.7v-0.4h2v0.4h-0.7v7.1h0.7v0.4H146.7z M147.4,101.9
							c0-0.1,0-0.2,0.1-0.3c0.1-0.1,0.2-0.1,0.3-0.1c0.1,0,0.2,0,0.3,0.1c0.1,0.1,0.1,0.2,0.1,0.3c0,0.1,0,0.2-0.1,0.3
							c-0.1,0.1-0.2,0.1-0.3,0.1c-0.1,0-0.2,0-0.3-0.1C147.4,102.1,147.4,102,147.4,101.9L147.4,101.9z"/>
						<defs>
							<filter id="Adobe_OpacityMaskFilter_37_" filterUnits="userSpaceOnUse" x="168.5" y="103.3" width="5.4" height="8">
								<feColorMatrix  type="matrix" values="1 0 0 0 0  0 1 0 0 0  0 0 1 0 0  0 0 0 1 0"/>
							</filter>
						</defs>
						<mask maskUnits="userSpaceOnUse" x="168.5" y="103.3" width="5.4" height="8" id="mask-2_38_">
							<g class="st76">
								<polygon id="path-1_38_" class="st2" points="29,158.7 377.4,158.7 377.4,98.2 29,98.2 								"/>
							</g>
						</mask>
						<path id="Fill-51" class="st77" d="M168.5,110.8h0.8v-7.1h-0.7v-0.4h5.1v1.5h-0.4v-1h-3.4v3.1c0.1,0,0.2,0,0.4,0
							c0.2,0,0.4,0,0.6,0c0.2,0,0.5,0,0.7,0c0.2,0,0.5,0,0.7,0c0.2,0,0.4,0,0.6,0c0.2,0,0.3,0,0.4,0v0.5l-3.3,0v3.6h3.6v-1h0.5v1.5
							h-5.4V110.8z"/>
						<defs>
							<filter id="Adobe_OpacityMaskFilter_38_" filterUnits="userSpaceOnUse" x="205.6" y="103.3" width="5.4" height="8">
								<feColorMatrix  type="matrix" values="1 0 0 0 0  0 1 0 0 0  0 0 1 0 0  0 0 0 1 0"/>
							</filter>
						</defs>
						<mask maskUnits="userSpaceOnUse" x="205.6" y="103.3" width="5.4" height="8" id="mask-2_39_">
							<g class="st78">
								<polygon id="path-1_39_" class="st2" points="29,158.7 377.4,158.7 377.4,98.2 29,98.2 								"/>
							</g>
						</mask>
						<path id="Fill-52" class="st79" d="M205.6,110.8h0.8v-7.1h-0.7v-0.4h5.1v1.5h-0.4v-1h-3.4v3.1c0.1,0,0.2,0,0.4,0
							c0.2,0,0.4,0,0.6,0c0.2,0,0.5,0,0.7,0c0.2,0,0.5,0,0.7,0c0.2,0,0.4,0,0.6,0c0.2,0,0.3,0,0.4,0v0.5l-3.3,0v3.6h3.6v-1h0.5v1.5
							h-5.4V110.8z"/>
						<defs>
							<filter id="Adobe_OpacityMaskFilter_39_" filterUnits="userSpaceOnUse" x="243.1" y="103.3" width="5.4" height="8">
								<feColorMatrix  type="matrix" values="1 0 0 0 0  0 1 0 0 0  0 0 1 0 0  0 0 0 1 0"/>
							</filter>
						</defs>
						<mask maskUnits="userSpaceOnUse" x="243.1" y="103.3" width="5.4" height="8" id="mask-2_40_">
							<g class="st80">
								<polygon id="path-1_40_" class="st2" points="29,158.7 377.4,158.7 377.4,98.2 29,98.2 								"/>
							</g>
						</mask>
						<path id="Fill-53" class="st81" d="M243.1,110.8h0.8v-7.1h-0.7v-0.4h5.1v1.5h-0.4v-1h-3.4v3.1c0.1,0,0.2,0,0.4,0
							c0.2,0,0.4,0,0.6,0c0.2,0,0.5,0,0.7,0c0.2,0,0.5,0,0.7,0c0.2,0,0.4,0,0.6,0c0.2,0,0.3,0,0.4,0v0.5l-3.3,0v3.6h3.6v-1h0.5v1.5
							h-5.4V110.8z"/>
						<defs>
							<filter id="Adobe_OpacityMaskFilter_40_" filterUnits="userSpaceOnUse" x="255.5" y="103.2" width="5.4" height="8">
								<feColorMatrix  type="matrix" values="1 0 0 0 0  0 1 0 0 0  0 0 1 0 0  0 0 0 1 0"/>
							</filter>
						</defs>
						<mask maskUnits="userSpaceOnUse" x="255.5" y="103.2" width="5.4" height="8" id="mask-2_41_">
							<g class="st82">
								<polygon id="path-1_41_" class="st2" points="29,158.7 377.4,158.7 377.4,98.2 29,98.2 								"/>
							</g>
						</mask>
						<path id="Fill-54" class="st83" d="M255.5,111.2v-0.4h0.7v-7.1h-0.7v-0.4h3.1c0.3,0,0.6,0,0.9,0.1c0.3,0.1,0.5,0.2,0.7,0.4
							c0.2,0.2,0.4,0.4,0.5,0.7c0.1,0.3,0.2,0.6,0.2,1c0,0.2,0,0.5-0.1,0.7c-0.1,0.3-0.2,0.5-0.3,0.8c-0.2,0.2-0.4,0.4-0.7,0.6
							c-0.3,0.2-0.7,0.2-1.1,0.2h-1.9v3h1v0.4H255.5z M258.6,107.4c0.2,0,0.4,0,0.6-0.1s0.4-0.2,0.5-0.3c0.2-0.1,0.3-0.3,0.4-0.6
							c0.1-0.2,0.2-0.5,0.2-0.9c0-0.3,0-0.6-0.1-0.8c-0.1-0.2-0.2-0.4-0.4-0.6c-0.2-0.2-0.3-0.3-0.6-0.3c-0.2-0.1-0.4-0.1-0.7-0.1
							h-1.9v3.7H258.6z"/>
						<defs>
							<filter id="Adobe_OpacityMaskFilter_41_" filterUnits="userSpaceOnUse" x="280" y="103.3" width="5.4" height="8">
								<feColorMatrix  type="matrix" values="1 0 0 0 0  0 1 0 0 0  0 0 1 0 0  0 0 0 1 0"/>
							</filter>
						</defs>
						<mask maskUnits="userSpaceOnUse" x="280" y="103.3" width="5.4" height="8" id="mask-2_42_">
							<g class="st84">
								<polygon id="path-1_42_" class="st2" points="29,158.7 377.4,158.7 377.4,98.2 29,98.2 								"/>
							</g>
						</mask>
						<path id="Fill-55" class="st85" d="M280,110.8h0.8v-7.1H280v-0.4h5.1v1.5h-0.4v-1h-3.4v3.1c0.1,0,0.2,0,0.4,0
							c0.2,0,0.4,0,0.6,0c0.2,0,0.5,0,0.7,0c0.2,0,0.5,0,0.7,0c0.2,0,0.4,0,0.6,0c0.2,0,0.3,0,0.4,0v0.5l-3.3,0v3.6h3.6v-1h0.5v1.5
							H280V110.8z"/>
						<defs>
							<filter id="Adobe_OpacityMaskFilter_42_" filterUnits="userSpaceOnUse" x="292.3" y="103.2" width="6.1" height="8.1">
								<feColorMatrix  type="matrix" values="1 0 0 0 0  0 1 0 0 0  0 0 1 0 0  0 0 0 1 0"/>
							</filter>
						</defs>
						<mask maskUnits="userSpaceOnUse" x="292.3" y="103.2" width="6.1" height="8.1" id="mask-2_43_">
							<g class="st86">
								<polygon id="path-1_43_" class="st2" points="29,158.7 377.4,158.7 377.4,98.2 29,98.2 								"/>
							</g>
						</mask>
						<path id="Fill-56" class="st87" d="M292.3,111.2v-0.4h0.7v-7.1h-0.7v-0.4h3.1c0.3,0,0.6,0,0.9,0.1c0.3,0.1,0.5,0.2,0.7,0.4
							c0.2,0.2,0.4,0.4,0.5,0.7c0.1,0.3,0.2,0.6,0.2,1c0,0.2,0,0.4-0.1,0.6c0,0.2-0.1,0.4-0.3,0.6c-0.1,0.2-0.3,0.4-0.5,0.5
							c-0.2,0.2-0.5,0.3-0.8,0.3l1.5,3.3l0.8,0.1l0,0.3c-0.1,0-0.3,0.1-0.4,0.1c-0.1,0-0.3,0-0.4,0c-0.2,0-0.3,0-0.3-0.1
							c-0.1-0.1-0.1-0.2-0.2-0.3l-1.5-3.3h-2v3.2h1v0.4H292.3z M295.5,107.2c0.2,0,0.4,0,0.6-0.1c0.2,0,0.4-0.1,0.6-0.3
							c0.2-0.1,0.3-0.3,0.4-0.5c0.1-0.2,0.2-0.5,0.2-0.9c0-0.3,0-0.6-0.1-0.8c-0.1-0.2-0.2-0.4-0.4-0.5c-0.2-0.1-0.4-0.2-0.6-0.3
							c-0.2-0.1-0.4-0.1-0.7-0.1h-1.9v3.5H295.5z"/>
						<defs>
							<filter id="Adobe_OpacityMaskFilter_43_" filterUnits="userSpaceOnUse" x="305.5" y="101.4" width="2" height="9.8">
								<feColorMatrix  type="matrix" values="1 0 0 0 0  0 1 0 0 0  0 0 1 0 0  0 0 0 1 0"/>
							</filter>
						</defs>
						<mask maskUnits="userSpaceOnUse" x="305.5" y="101.4" width="2" height="9.8" id="mask-2_44_">
							<g class="st88">
								<polygon id="path-1_44_" class="st2" points="29,158.7 377.4,158.7 377.4,98.2 29,98.2 								"/>
							</g>
						</mask>
						<path id="Fill-57" class="st89" d="M305.5,111.2v-0.4h0.7v-7.1h-0.7v-0.4h2v0.4h-0.7v7.1h0.7v0.4H305.5z M306.2,101.9
							c0-0.1,0-0.2,0.1-0.3c0.1-0.1,0.2-0.1,0.3-0.1c0.1,0,0.2,0,0.3,0.1c0.1,0.1,0.1,0.2,0.1,0.3c0,0.1,0,0.2-0.1,0.3
							c-0.1,0.1-0.2,0.1-0.3,0.1c-0.1,0-0.2,0-0.3-0.1C306.2,102.1,306.2,102,306.2,101.9L306.2,101.9z"/>
						<defs>
							<filter id="Adobe_OpacityMaskFilter_44_" filterUnits="userSpaceOnUse" x="336.1" y="103.2" width="6.9" height="8">
								<feColorMatrix  type="matrix" values="1 0 0 0 0  0 1 0 0 0  0 0 1 0 0  0 0 0 1 0"/>
							</filter>
						</defs>
						<mask maskUnits="userSpaceOnUse" x="336.1" y="103.2" width="6.9" height="8" id="mask-2_45_">
							<g class="st90">
								<polygon id="path-1_45_" class="st2" points="29,158.7 377.4,158.7 377.4,98.2 29,98.2 								"/>
							</g>
						</mask>
						<path id="Fill-58" class="st91" d="M340.9,111.2v-0.4h0.9l-0.6-1.8h-3.3l-0.6,1.8h0.9v0.4h-2.1v-0.4h0.7
							c0.1-0.2,0.2-0.6,0.3-1c0.1-0.4,0.3-0.8,0.4-1.3c0.2-0.5,0.3-1,0.5-1.5c0.2-0.5,0.3-1,0.5-1.5c0.2-0.5,0.3-0.9,0.4-1.3
							c0.1-0.4,0.2-0.7,0.3-1h0.7l2.4,7.5h0.7v0.4H340.9z M339.9,105l-0.4-1.2h0l-0.4,1.2c0,0.1-0.1,0.3-0.2,0.5
							c-0.1,0.3-0.2,0.6-0.3,0.9c-0.1,0.3-0.2,0.7-0.3,1.1c-0.1,0.4-0.2,0.7-0.3,1h3L339.9,105z"/>
					</g>
				</g>
			</g>
		</g>
	</g>
</g>
</svg>
